<svg width="360" height="192" viewBox="0 0 360 192" fill="none" xmlns="http://www.w3.org/2000/svg">
<g clip-path="url(#clip0_2_12)">
<path d="M360 144C360 170.51 338.51 192 312 192C285.49 192 264 170.51 264 144C264 117.49 285.49 96 312 96C338.51 96 360 117.49 360 144Z" fill="#4698AD"/>
<path d="M312 96C312 149.019 269.019 192 216 192C162.981 192 120 149.019 120 96C120 42.9807 162.981 4.67745e-06 216 4.67745e-06C269.019 4.67745e-06 312 42.9807 312 96Z" fill="#5AB0C5"/>
<path d="M192 120C192 159.765 159.765 192 120 192C80.2355 192 48 159.765 48 120C48 80.2355 80.2355 48 120 48C159.765 48 192 80.2355 192 120Z" fill="#5EC2DA"/>
<path d="M96 144C96 170.51 74.5097 192 48 192C21.4903 192 0 170.51 0 144C0 117.49 21.4903 96 48 96C74.5097 96 96 117.49 96 144Z" fill="#74CFEA"/>
</g>
<defs>
<clipPath id="clip0_2_12">
<rect width="360" height="192" fill="white"/>
</clipPath>
</defs>
</svg>
